<?xml version="1.0" encoding="iso-8859-1"?>
<!-- Generator: Adobe Illustrator 19.0.0, SVG Export Plug-In . SVG Version: 6.00 Build 0)  -->
<svg version="1.1" id="Capa_1" xmlns="http://www.w3.org/2000/svg" xmlns:xlink="http://www.w3.org/1999/xlink" x="0px" y="0px"
	 width="80" height="80" viewBox="0 0 477.377 477.377" style="enable-background:new 0 0 477.377 477.377;" xml:space="preserve">
<g>
	<g>
		<path d="M452.158,25.124c-42.086-42.103-125.577-29.542-213.47,24.627C150.795-4.401,67.305-16.945,25.219,25.124
			c-42.086,42.069-29.525,125.577,24.627,213.47c-54.153,87.893-66.714,171.366-24.627,213.47
			c18.716,17.405,43.68,26.492,69.205,25.19c51.654-3.435,101.455-20.591,144.265-49.698c42.81,29.107,92.611,46.264,144.265,49.698
			c25.524,1.294,50.486-7.792,69.205-25.19c42.086-42.103,29.525-125.577-24.627-213.47
			C481.684,150.701,494.245,67.227,452.158,25.124z M382.202,33.794c16.726-1.122,33.212,4.453,45.824,15.497
			c25.975,25.958,19.302,86.904-21.282,158.123c-19.011-26.253-40.093-50.942-63.044-73.83
			c-22.905-22.991-47.617-44.108-73.899-63.147C303.649,49.089,342.276,36.497,382.202,33.794z M49.351,49.256l0.051,0.034
			c12.599-11.03,29.064-16.604,45.773-15.497c39.931,2.718,78.558,15.328,112.401,36.693
			c-52.56,38.162-98.775,84.371-136.943,136.926C30.048,136.194,23.375,75.249,49.351,49.256z M49.351,427.931
			c-25.975-25.993-19.302-86.938,21.282-158.157c19.011,26.253,40.093,50.942,63.044,73.83
			c22.873,22.985,47.551,44.102,73.796,63.147C136.289,447.251,75.326,453.924,49.351,427.931z M157.81,319.422
			c-24.972-24.806-47.602-51.863-67.601-80.828c40.302-57.931,90.577-108.24,148.48-148.582
			c28.985,20.032,56.059,42.696,80.879,67.703c24.974,24.822,47.604,51.897,67.601,80.879
			c-20.013,28.985-42.66,56.059-67.652,80.879c-24.806,24.972-51.863,47.602-80.828,67.601
			C209.704,367.061,182.629,344.414,157.81,319.422z M428.026,427.931h-0.034c-25.993,25.992-86.938,19.319-158.123-21.265
			c26.242-19.018,50.92-40.105,73.796-63.061c22.951-22.888,44.034-47.577,63.044-73.83
			C447.329,340.994,454.002,401.939,428.026,427.931z" fill="#1190CB"/>
	</g>
</g>
<g>
	<g>
		<path d="M238.689,170.327c-37.703,0-68.267,30.564-68.267,68.267s30.564,68.267,68.267,68.267s68.267-30.564,68.267-68.267
			S276.391,170.327,238.689,170.327z M238.689,272.727c-18.851,0-34.133-15.282-34.133-34.133c0-18.851,15.282-34.133,34.133-34.133
			c18.851,0,34.133,15.282,34.133,34.133C272.822,257.445,257.54,272.727,238.689,272.727z" fill="#1190CB"/>
	</g>
</g>
</svg>
